<svg xmlns="http://www.w3.org/2000/svg" viewBox="0 0 64 64" role="img" aria-label="TikTok">
  <rect width="64" height="64" rx="18" fill="#05070b"/>
  <path d="M36 12c1.1 8.2 5.4 13.1 13.2 14.2v9.2c-4.6.2-8.7-1.1-12.5-3.7v13.6c0 9.2-6.2 15.2-15.1 15.2-7.2 0-13-5.2-13-12.2 0-8 6.4-13.1 14.6-12.5v9.4c-3.2-.7-5.7.5-5.7 3.1 0 2.1 1.7 3.5 4.1 3.5 3 0 4.9-1.9 4.9-5.8V12h9.5Z" fill="#25f4ee"/>
  <path d="M39.3 14.5c1.6 6.1 5.6 9.9 12.1 10.8v8.4c-4.5.2-8.7-1.1-12.5-3.7v13.6c0 9.2-6.2 15.2-15.1 15.2-5 0-9.3-2.5-11.5-6.3 2.4 1.7 5.3 2.6 8.4 2.6 8.9 0 15.1-6 15.1-15.2V26.3c3.8 2.6 8 3.9 12.5 3.7v-2.1c-5.2-1.4-8.3-5.2-9-13.4Z" fill="#fe2c55"/>
  <path d="M33.1 12v34c0 3.9-1.9 5.8-4.9 5.8-2.4 0-4.1-1.4-4.1-3.5 0-2.6 2.5-3.8 5.7-3.1v-9.4c-8.2-.6-14.6 4.5-14.6 12.5 0 .8.1 1.6.3 2.4-4.1-2.1-6.9-6.3-6.9-11.4 0-8 6.4-13.1 14.6-12.5v9.4c-3.2-.7-5.7.5-5.7 3.1 0 2.1 1.7 3.5 4.1 3.5 3 0 4.9-1.9 4.9-5.8V12h6.6Z" fill="#fff"/>
</svg>
